<svg width="36" height="36" viewBox="0 0 36 36" fill="none" xmlns="http://www.w3.org/2000/svg">
<mask id="mask0_37_412" style="mask-type:alpha" maskUnits="userSpaceOnUse" x="0" y="0" width="36" height="36">
<rect width="36" height="36" fill="#D9D9D9"/>
</mask>
<g mask="url(#mask0_37_412)">
<path d="M7.5 31.5C6.675 31.5 5.9685 31.2065 5.3805 30.6195C4.7935 30.0315 4.5 29.325 4.5 28.5V7.5C4.5 6.675 4.7935 5.9685 5.3805 5.3805C5.9685 4.7935 6.675 4.5 7.5 4.5H13.8C14.125 3.6 14.669 2.875 15.432 2.325C16.194 1.775 17.05 1.5 18 1.5C18.95 1.5 19.8065 1.775 20.5695 2.325C21.3315 2.875 21.875 3.6 22.2 4.5H28.5C29.325 4.5 30.0315 4.7935 30.6195 5.3805C31.2065 5.9685 31.5 6.675 31.5 7.5V28.5C31.5 29.325 31.2065 30.0315 30.6195 30.6195C30.0315 31.2065 29.325 31.5 28.5 31.5H7.5ZM7.5 28.5H28.5V7.5H7.5V28.5ZM10.5 25.5H21V22.5H10.5V25.5ZM10.5 19.5H25.5V16.5H10.5V19.5ZM10.5 13.5H25.5V10.5H10.5V13.5ZM18 6.375C18.325 6.375 18.594 6.2685 18.807 6.0555C19.019 5.8435 19.125 5.575 19.125 5.25C19.125 4.925 19.019 4.656 18.807 4.443C18.594 4.231 18.325 4.125 18 4.125C17.675 4.125 17.4065 4.231 17.1945 4.443C16.9815 4.656 16.875 4.925 16.875 5.25C16.875 5.575 16.9815 5.8435 17.1945 6.0555C17.4065 6.2685 17.675 6.375 18 6.375Z" fill="#BFA9D7"/>
</g>
</svg>
