<svg width="38" height="38" viewBox="0 0 38 38" fill="none" xmlns="http://www.w3.org/2000/svg">
<mask id="mask0_37_435" style="mask-type:alpha" maskUnits="userSpaceOnUse" x="0" y="0" width="38" height="38">
<rect width="38" height="38" fill="#D9D9D9"/>
</mask>
<g mask="url(#mask0_37_435)">
<path d="M7.91667 33.25C7.04583 33.25 6.30008 32.9402 5.67942 32.3206C5.05981 31.6999 4.75 30.9542 4.75 30.0833V23.75H7.91667V30.0833H30.0833V7.91667H7.91667V14.25H4.75V7.91667C4.75 7.04583 5.05981 6.30008 5.67942 5.67942C6.30008 5.05981 7.04583 4.75 7.91667 4.75H30.0833C30.9542 4.75 31.6999 5.05981 32.3206 5.67942C32.9402 6.30008 33.25 7.04583 33.25 7.91667V30.0833C33.25 30.9542 32.9402 31.6999 32.3206 32.3206C31.6999 32.9402 30.9542 33.25 30.0833 33.25H7.91667ZM16.625 26.9167L14.4083 24.6208L18.4458 20.5833H4.75V17.4167H18.4458L14.4083 13.3792L16.625 11.0833L24.5417 19L16.625 26.9167Z" fill="#BFA9D7"/>
</g>
</svg>
