<svg width="36" height="36" viewBox="0 0 36 36" fill="none" xmlns="http://www.w3.org/2000/svg">
<mask id="mask0_37_428" style="mask-type:alpha" maskUnits="userSpaceOnUse" x="0" y="0" width="36" height="36">
<rect width="36" height="36" fill="#D9D9D9"/>
</mask>
<g mask="url(#mask0_37_428)">
<path d="M13.8749 33L13.2749 28.2C12.9499 28.075 12.6439 27.925 12.3569 27.75C12.0689 27.575 11.7874 27.3875 11.5124 27.1875L7.04993 29.0625L2.92493 21.9375L6.78743 19.0125C6.76243 18.8375 6.74993 18.6685 6.74993 18.5055V17.493C6.74993 17.331 6.76243 17.1625 6.78743 16.9875L2.92493 14.0625L7.04993 6.9375L11.5124 8.8125C11.7874 8.6125 12.0749 8.425 12.3749 8.25C12.6749 8.075 12.9749 7.925 13.2749 7.8L13.8749 3H22.1249L22.7249 7.8C23.0499 7.925 23.3564 8.075 23.6444 8.25C23.9314 8.425 24.2124 8.6125 24.4874 8.8125L28.9499 6.9375L33.0749 14.0625L29.2124 16.9875C29.2374 17.1625 29.2499 17.331 29.2499 17.493V18.5055C29.2499 18.6685 29.2249 18.8375 29.1749 19.0125L33.0374 21.9375L28.9124 29.0625L24.4874 27.1875C24.2124 27.3875 23.9249 27.575 23.6249 27.75C23.3249 27.925 23.0249 28.075 22.7249 28.2L22.1249 33H13.8749ZM18.0749 23.25C19.5249 23.25 20.7624 22.7375 21.7874 21.7125C22.8124 20.6875 23.3249 19.45 23.3249 18C23.3249 16.55 22.8124 15.3125 21.7874 14.2875C20.7624 13.2625 19.5249 12.75 18.0749 12.75C16.5999 12.75 15.3559 13.2625 14.3429 14.2875C13.3309 15.3125 12.8249 16.55 12.8249 18C12.8249 19.45 13.3309 20.6875 14.3429 21.7125C15.3559 22.7375 16.5999 23.25 18.0749 23.25ZM18.0749 20.25C17.4499 20.25 16.9189 20.031 16.4819 19.593C16.0439 19.156 15.8249 18.625 15.8249 18C15.8249 17.375 16.0439 16.844 16.4819 16.407C16.9189 15.969 17.4499 15.75 18.0749 15.75C18.6999 15.75 19.2314 15.969 19.6694 16.407C20.1064 16.844 20.3249 17.375 20.3249 18C20.3249 18.625 20.1064 19.156 19.6694 19.593C19.2314 20.031 18.6999 20.25 18.0749 20.25ZM16.4999 30H19.4624L19.9874 26.025C20.7624 25.825 21.4814 25.531 22.1444 25.143C22.8064 24.756 23.4124 24.2875 23.9624 23.7375L27.6749 25.275L29.1374 22.725L25.9124 20.2875C26.0374 19.9375 26.1249 19.5685 26.1749 19.1805C26.2249 18.7935 26.2499 18.4 26.2499 18C26.2499 17.6 26.2249 17.206 26.1749 16.818C26.1249 16.431 26.0374 16.0625 25.9124 15.7125L29.1374 13.275L27.6749 10.725L23.9624 12.3C23.4124 11.725 22.8064 11.2435 22.1444 10.8555C21.4814 10.4685 20.7624 10.175 19.9874 9.975L19.4999 6H16.5374L16.0124 9.975C15.2374 10.175 14.5189 10.4685 13.8569 10.8555C13.1939 11.2435 12.5874 11.7125 12.0374 12.2625L8.32493 10.725L6.86243 13.275L10.0874 15.675C9.96243 16.05 9.87493 16.425 9.82493 16.8C9.77493 17.175 9.74993 17.575 9.74993 18C9.74993 18.4 9.77493 18.7875 9.82493 19.1625C9.87493 19.5375 9.96243 19.9125 10.0874 20.2875L6.86243 22.725L8.32493 25.275L12.0374 23.7C12.5874 24.275 13.1939 24.756 13.8569 25.143C14.5189 25.531 15.2374 25.825 16.0124 26.025L16.4999 30Z" fill="#271F50"/>
</g>
</svg>
